<svg height="512pt" viewBox="-32 0 512 512" width="512pt" xmlns="http://www.w3.org/2000/svg"><path d="m285 447.671875c0 18.929687 15.398438 34.328125 34.328125 34.328125h31.671875v-68.65625h-31.671875c-18.929687 0-34.328125 15.398438-34.328125 34.328125zm0 0"/><path d="m381 482h31.671875c18.929687 0 34.328125-15.398438 34.328125-34.328125s-15.398438-34.328125-34.328125-34.328125h-31.671875zm0 0"/><path d="m255 447.671875c0-35.472656 28.859375-64.328125 64.328125-64.328125h61.671875v-263.34375h-120.667969v-120h-260.332031v512h319.328125c-35.46875 0-64.328125-28.859375-64.328125-64.328125zm10-256.328125h34v30h-34zm0 64h34v30h-34zm0 64h34v30h-34zm-173.710938-227.09375h27.25v-27.25h30v27.25h27.25v30h-27.25v27.25h-30v-27.25h-27.25zm140.585938 321.09375h-157.667969v-30h157.667969zm0-64h-157.667969v-30h157.667969zm0-64h-157.667969v-30h157.667969zm0-64h-157.667969v-30h157.667969zm0 0"/><path d="m290.332031 90h90.113281l-90-90h-.113281zm0 0"/></svg>