<?xml version="1.0" encoding="iso-8859-1"?>
<!-- Generator: Adobe Illustrator 19.0.0, SVG Export Plug-In . SVG Version: 6.00 Build 0)  -->
<svg version="1.1" id="Capa_1" xmlns="http://www.w3.org/2000/svg" xmlns:xlink="http://www.w3.org/1999/xlink" x="0px" y="0px"
	 viewBox="0 0 512 512" style="enable-background:new 0 0 512 512;" xml:space="preserve">
<g>
	<g>
		<path d="M436,272c-5.852,0-11.446,1.123-16.579,3.164C414.211,256.075,396.718,242,376,242c-11.515,0-22.033,4.347-30,11.486
			C338.033,246.347,327.515,242,316,242c-5.257,0-10.307,0.906-15,2.57V197c0-24.813-20.187-45-45-45s-45,20.187-45,45v146.365
			l-6.972-6.972c-17.585-17.584-46.048-17.588-63.635,0c-17.586,17.586-17.588,46.048,0,63.635l107.578,107.578
			c2.813,2.813,6.628,4.394,10.606,4.394H436c6.202,0,11.765-3.817,13.996-9.605C470.569,449.032,481,392.977,481,335.788V317
			C481,292.187,460.814,272,436,272z M451.001,335.788L451.001,335.788C451,385.851,442.451,434.989,425.578,482H264.791
			L161.607,378.815c-5.861-5.86-5.862-15.346,0-21.208c5.862-5.861,15.346-5.861,21.209,0l32.582,32.582
			c4.291,4.289,10.745,5.569,16.346,3.247c5.604-2.322,9.257-7.791,9.257-13.857V197c0-8.271,6.729-15,15-15c8.271,0,15,6.729,15,15
			v120c0,8.284,6.716,15,15,15s15-6.716,15-15v-30c0-8.271,6.729-15,15-15s15,6.729,15,15v30c0,8.284,6.716,15,15,15s15-6.716,15-15
			v-30c0-8.271,6.729-15,15-15s15,6.729,15,15v30c0,8.284,6.716,15,15,15s15-6.716,15-15c0-8.271,6.729-15,15-15s15,6.729,15,15
			V335.788z"/>
	</g>
</g>
<g>
	<g>
		<path d="M149.285,52.989c-1.753-5.478-6.484-9.47-12.178-10.277l-33.71-4.783L88.387,8.234C85.835,3.184,80.658,0,75,0
			S64.165,3.184,61.613,8.234l-15.01,29.694l-33.71,4.783C7.2,43.519,2.468,47.511,0.715,52.988
			c-1.754,5.477-0.222,11.475,3.944,15.439l24.176,23.009l-5.69,32.397c-0.985,5.608,1.29,11.291,5.873,14.669
			c4.592,3.384,10.694,3.866,15.75,1.271L75,124.256l30.232,15.518c5.065,2.6,11.167,2.108,15.75-1.271
			c4.583-3.379,6.858-9.061,5.873-14.669l-5.69-32.397l24.176-23.009C149.507,64.463,151.039,58.466,149.285,52.989z M94.659,75.248
			c-3.638,3.462-5.302,8.515-4.433,13.461l1.861,10.597L81.85,94.05c-4.299-2.207-9.4-2.207-13.699,0l-10.238,5.255l1.861-10.597
			c0.869-4.946-0.795-9.999-4.433-13.461l-7.552-7.187l10.777-1.529c4.855-0.688,9.067-3.708,11.279-8.084L75,48.251l5.154,10.196
			c2.212,4.377,6.424,7.396,11.279,8.084l10.777,1.529L94.659,75.248z"/>
	</g>
</g>
<g>
	<g>
		<path d="M330.285,52.989c-1.753-5.478-6.484-9.47-12.178-10.277l-33.71-4.783l-15.01-29.695C266.835,3.184,261.658,0,256,0
			c-5.658,0-10.835,3.184-13.387,8.233l-15.011,29.695l-33.71,4.783c-5.693,0.808-10.425,4.8-12.178,10.277
			c-1.754,5.477-0.222,11.475,3.944,15.439l24.177,23.01l-5.69,32.397c-0.985,5.608,1.29,11.291,5.873,14.669
			c4.592,3.384,10.694,3.866,15.75,1.271L256,124.256l30.232,15.518c5.066,2.6,11.167,2.108,15.75-1.271
			c4.583-3.379,6.858-9.061,5.873-14.669l-5.69-32.397l24.176-23.009C330.507,64.463,332.039,58.466,330.285,52.989z
			 M275.658,75.247c-3.638,3.462-5.302,8.515-4.433,13.461l1.861,10.597L262.85,94.05c-4.299-2.207-9.4-2.207-13.699,0
			l-10.238,5.255l1.861-10.597c0.869-4.946-0.795-9.999-4.433-13.461l-7.552-7.187l10.778-1.529
			c4.855-0.688,9.067-3.708,11.279-8.084L256,48.251l5.154,10.196c2.212,4.377,6.424,7.396,11.279,8.084l10.777,1.529
			L275.658,75.247z"/>
	</g>
</g>
<g>
	<g>
		<path d="M511.285,52.988c-1.753-5.478-6.484-9.47-12.178-10.277l-33.71-4.783l-15.01-29.694C447.835,3.184,442.658,0,437,0
			c-5.658,0-10.835,3.184-13.387,8.233l-15.011,29.695l-33.71,4.783c-5.693,0.808-10.425,4.8-12.178,10.277
			c-1.754,5.477-0.222,11.475,3.944,15.439l24.176,23.009l-5.69,32.397c-0.985,5.608,1.29,11.291,5.873,14.669
			c4.592,3.384,10.694,3.866,15.75,1.271L437,124.256l30.232,15.518c5.065,2.6,11.167,2.108,15.75-1.271
			c4.583-3.379,6.858-9.061,5.873-14.669l-5.69-32.397l24.176-23.009C511.507,64.463,513.039,58.465,511.285,52.988z
			 M456.659,75.248c-3.638,3.462-5.302,8.515-4.433,13.461l1.861,10.597L443.85,94.05c-4.299-2.207-9.4-2.207-13.699,0
			l-10.238,5.255l1.861-10.597c0.869-4.946-0.795-9.999-4.433-13.461l-7.552-7.187l10.777-1.529
			c4.855-0.688,9.067-3.708,11.279-8.084L437,48.251l5.154,10.196c2.212,4.377,6.424,7.396,11.279,8.084l10.777,1.529
			L456.659,75.248z"/>
	</g>
</g>
<g>
</g>
<g>
</g>
<g>
</g>
<g>
</g>
<g>
</g>
<g>
</g>
<g>
</g>
<g>
</g>
<g>
</g>
<g>
</g>
<g>
</g>
<g>
</g>
<g>
</g>
<g>
</g>
<g>
</g>
</svg>
